# xmcd
#
# Track frame offsets: 
#        150
#        13340
#        29272
#        44922
#        62912
#        78600
#        93775
#        106755
#        126960
#        145375
#        156737
#        166750
#
# Disc length: 2559 seconds
#
# Revision: 1
# Processed by: cddbd v1.5.2PL0 Copyright (c) Steve Scherf et al.
# Submitted via: ExactAudioCopy v0.99pb4
#
DISCID=a809fd0c
DTITLE=Lohan, Ali - Lohan Holiday
DYEAR=2006
DGENRE=Christmas/Holiday
TTITLE0=Christmas Day
TTITLE1=I Like Christmas
TTITLE2=Winter Wonderland
TTITLE3=Christmas Magic
TTITLE4=Jingle Bells
TTITLE5=Groove Of Christmas
TTITLE6=Lohan Holiday (featuring Lindsay Lohan)
TTITLE7=Deck The Halls
TTITLE8=Silent Night (reading: Dina Lohan)
TTITLE9=Santa's Reindeer Ride (featuring Amy Grant)
TTITLE10=We Wish You A Merry Christmas
TTITLE11=I Like Christmas (Remix)
EXTD=
EXTT0=
EXTT1=
EXTT2=
EXTT3=
EXTT4=
EXTT5=
EXTT6=
EXTT7=
EXTT8=
EXTT9=
EXTT10=
EXTT11=
PLAYORDER=
